<?xml version="1.0" encoding="utf-8"?>
<!-- Generator: Adobe Illustrator 24.0.2, SVG Export Plug-In . SVG Version: 6.00 Build 0)  -->
<svg version="1.1" id="Capa_1" xmlns="http://www.w3.org/2000/svg" xmlns:xlink="http://www.w3.org/1999/xlink" x="0px" y="0px"
	 viewBox="0 0 1200 1200" style="enable-background:new 0 0 1200 1200;" xml:space="preserve">
<style type="text/css">
	.st0{fill:#1ED760;}
</style>
<g>
	<g>
		<g>
			<path class="st0" d="M607.41,45.09c-304,0-550.46,246.44-550.46,550.45c0,304.03,246.45,550.46,550.46,550.46
				c304.01,0,550.46-246.43,550.46-550.46C1157.87,291.53,911.43,45.09,607.41,45.09z M859.86,839.04
				c-9.89,16.22-31.01,21.3-47.17,11.42c-129.26-79.01-291.96-96.85-483.57-53.08c-18.47,4.23-36.87-7.34-41.08-25.8
				c-4.23-18.46,7.3-36.87,25.8-41.08c209.68-47.94,389.55-27.31,534.63,61.35C864.65,801.74,869.75,822.87,859.86,839.04z
				 M927.21,689.15c-12.45,20.2-38.86,26.53-59.03,14.13c-147.93-90.93-373.5-117.27-548.51-64.15
				c-22.7,6.86-46.67-5.94-53.56-28.59c-6.84-22.7,5.96-46.62,28.62-53.52c199.92-60.67,448.46-31.28,618.36,73.13
				C933.27,642.57,939.62,669,927.21,689.15z M933.02,533.08c-177.44-105.37-470.11-115.06-639.5-63.65
				c-27.2,8.25-55.97-7.1-64.21-34.3c-8.24-27.22,7.1-55.96,34.32-64.23c194.44-59.02,517.67-47.62,721.94,73.63
				c24.47,14.52,32.49,46.12,17.99,70.55C989.05,539.54,957.43,547.6,933.02,533.08z"/>
		</g>
	</g>
</g>
</svg>
